<?xml version="1.0" encoding="UTF-8" standalone="no"?>
<svg width="100%" height="100%" viewBox="-10 -10 518 420" version="1.1" xmlns="http://www.w3.org/2000/svg" style="fill-rule:evenodd;clip-rule:evenodd;stroke-linecap:round;stroke-linejoin:round;stroke-miterlimit:1.5;">
    <g transform="matrix(1,0,0,1,-1114.83,-708.856)">
        <path d="M1361.62,848.208C1378.4,848.208 1392.03,861.836 1392.03,878.621C1392.03,895.406 1378.4,909.033 1361.62,909.033C1344.83,909.033 1331.21,895.406 1331.21,878.621C1331.21,861.836 1344.83,848.208 1361.62,848.208ZM1279.89,951.244C1279.89,951.244 1299.11,937.02 1318.06,915.315C1325,907.362 1329.71,898.892 1332.91,891.151M1203.79,856.384C1203.79,830.716 1224.68,809.877 1250.4,809.877C1276.12,809.877 1297,830.716 1297,856.384C1297,867.229 1293.27,877.212 1287.02,885.126M1287.02,885.126C1284.62,888.165 1281.86,890.899 1278.78,893.259M1287.02,885.126C1284.33,887.893 1281.58,890.594 1278.78,893.259M1278.78,893.259C1264.42,906.951 1248.84,919.699 1232.92,935.711M1232.92,935.711C1230.67,937.977 1228.41,940.308 1226.15,942.717C1211.69,958.107 1208.18,976.906 1206.83,986.081L1339.61,985.787M1166.28,821.223C1169.77,813.38 1174.38,806.126 1179.92,799.656M1179.92,799.656C1196.53,780.245 1221.47,767.894 1249.34,767.894C1296.94,767.894 1336.02,803.948 1339.61,849.666M1339.61,849.666C1339.66,850.329 1339.7,850.994 1339.74,851.662M1339.61,1057.93C1337.87,1080.46 1319.33,1098.21 1296.74,1098.21C1294.13,1098.21 1291.57,1097.98 1289.09,1097.52M1289.09,1097.52C1284.53,1096.69 1280.22,1095.12 1276.28,1092.94M1339.61,1050.98C1339.7,1052.13 1339.74,1053.28 1339.74,1054.45C1339.74,1055.62 1339.7,1056.78 1339.61,1057.93M1289.09,1097.52C1284.76,1096.12 1280.49,1094.59 1276.28,1092.94M1276.28,1092.94C1198.31,1062.45 1143.63,991.808 1143.63,909.614C1143.63,877.88 1151.78,847.868 1166.28,821.223M1166.28,821.223C1170.34,813.758 1174.9,806.556 1179.92,799.656M1179.92,799.656C1202.76,768.247 1235.09,743.065 1273.17,727.526M1339.61,764.212L1339.61,849.666M1339.61,849.666L1339.61,851.559M1339.61,943.655L1339.61,985.787M1339.61,985.787L1339.61,1050.98M1339.61,1050.98L1339.61,1053.86M1339.61,1053.86L1339.61,1057.93M1292.4,720.659C1293.79,720.522 1295.19,720.452 1296.61,720.452C1320.34,720.452 1339.61,740.06 1339.61,764.212M1273.17,727.526C1276.12,725.574 1279.31,724.517 1282.69,723.339C1285.78,722.26 1289.04,720.992 1292.4,720.659M1160.57,852.895C1160.57,806.326 1200.71,768.518 1250.16,768.518M1199.12,902.535C1184.13,902.535 1171.23,893.526 1165.53,880.627M1165.53,880.627C1164.42,878.116 1163.58,875.458 1163.06,872.691M1165.53,880.627C1164.57,878.037 1163.75,875.389 1163.06,872.691M1163.06,872.691C1161.43,866.341 1160.57,859.712 1160.57,852.895M1250.58,857.11C1250.58,857.11 1249.17,862.635 1246.85,865.016C1223.5,888.956 1196.46,909.117 1182.91,930.875C1171.1,949.827 1163.48,974.11 1165.53,995.566M1187.8,1027.74L1245.76,1028.64C1245.76,1028.64 1261.43,1038.93 1269.85,1042.99C1278.33,1047.07 1296.61,1053.12 1296.61,1053.12L1297.54,1027.41M1432.82,720.522C1440.74,722.918 1448.46,725.709 1455.96,728.868M1455.96,728.868C1531.33,760.639 1583.61,829.663 1583.61,909.614C1583.61,991.366 1528.95,1061.69 1450.83,1092.45M1450.83,1092.45C1446.94,1093.98 1442.99,1095.42 1438.99,1096.75M1386.89,1053.86L1385.98,896.821M1386.89,764.212C1386.89,740.06 1406.36,720.452 1430.35,720.452C1431.18,720.452 1432,720.476 1432.82,720.522M1450.83,1092.45C1447.16,1094.43 1443.18,1095.89 1438.99,1096.75M1438.99,1096.75C1436.19,1097.32 1433.3,1097.62 1430.35,1097.62C1406.36,1097.62 1386.89,1078.01 1386.89,1053.86M1387.24,820.245L1386.89,764.212M1476.61,813.286C1501.22,813.286 1521.19,833.507 1521.19,858.413C1521.19,883.32 1501.22,903.541 1476.61,903.541M1476.61,903.541L1449.37,903.541M1489.41,771.902L1428.65,771.902M1489.41,771.902C1529.33,771.902 1561.74,810.005 1561.74,856.939C1561.74,871.816 1558.3,886.936 1552.58,899.107M1552.47,899.107C1563.33,913.403 1570.11,930.977 1570.11,951.434C1570.11,985.671 1551.66,1015 1525.58,1026.97M1479.69,903.541C1505.99,903.541 1527.35,924.437 1527.35,950.176C1527.35,975.914 1505.99,996.811 1479.69,996.811M1479.69,996.811L1428.89,996.811L1428.65,813.286L1476.61,813.286M1428.65,1032.74L1428.65,1054.46L1465.63,1038.22C1498.78,1039.88 1522.45,1032.5 1540.29,1019.56" style="fill:none;stroke:#69bac9;stroke-width:20.83px;"/>
    </g>
</svg>
